<svg width="250" height="308" viewBox="0 0 250 308" fill="none" xmlns="http://www.w3.org/2000/svg">
<mask id="mask0_5_5" style="mask-type:luminance" maskUnits="userSpaceOnUse" x="0" y="0" width="250" height="308">
<path d="M0 0H250V307.646H0V0Z" fill="white"/>
</mask>
<g mask="url(#mask0_5_5)">
<path d="M246.274 44.3246C246.274 44.3246 154.496 37.1283 124.564 0C94.6223 37.1283 2.84438 44.3246 2.84438 44.3246C2.84438 44.3246 -2.87278 138.994 4.69321 168.993C31.7999 277.306 124.564 307.304 124.564 307.304C124.564 307.304 217.385 277.249 244.435 168.993C251.991 138.994 246.274 44.3246 246.274 44.3246Z" fill="black"/>
</g>
<path d="M232.507 166.044C210.255 255.111 141.772 287.384 124.621 294.211C107.412 287.384 38.9865 255.111 16.7341 166.044C11.6333 145.574 13.1692 86.6203 14.7052 55.5125C38.2564 52.5639 94.0722 43.1585 124.621 17.455C155.178 43.1585 211.051 52.5639 234.536 55.5125C236.015 86.6203 237.608 145.574 232.507 166.044Z" fill="#CA2323"/>
<path d="M232.507 166.044C210.255 255.111 141.772 287.384 124.621 294.211V17.455C155.178 43.1585 211.051 52.5639 234.536 55.5125C236.015 86.6203 237.608 145.574 232.507 166.044Z" fill="#9F1717"/>
<mask id="mask1_5_5" style="mask-type:luminance" maskUnits="userSpaceOnUse" x="74" y="72" width="101" height="145">
<path d="M74.5033 72.6544H174.625V216.408H74.5033V72.6544Z" fill="white"/>
</mask>
<g mask="url(#mask1_5_5)">
<path d="M165.779 203.324C165.779 204.443 165.333 205.438 164.584 206.197C163.826 206.946 162.83 207.401 161.711 207.401H87.4166C86.2884 207.392 85.3023 206.946 84.5438 206.197C83.8043 205.438 83.3587 204.443 83.3492 203.324V143.64C83.3587 142.521 83.7948 141.526 84.5438 140.767C85.3023 140.018 86.2979 139.563 87.4166 139.563H161.711C162.83 139.563 163.826 140.018 164.584 140.767C165.333 141.526 165.779 142.521 165.779 143.64V203.324ZM102.331 89.4646C107.185 84.6102 113.822 81.6236 121.208 81.6142H127.93C135.316 81.6236 141.952 84.6102 146.797 89.4646C151.633 94.3284 154.619 100.994 154.619 108.408V130.679H94.518V108.408C94.518 100.994 97.4951 94.3284 102.331 89.4646ZM163.465 130.822V108.408C163.465 88.7061 147.556 72.7398 127.93 72.7398H121.208C101.582 72.7398 85.6721 88.7061 85.6721 108.408V130.822C79.3671 131.684 74.5222 137.079 74.5033 143.64V203.324C74.5127 210.473 80.2773 216.266 87.4166 216.275H161.711C168.841 216.257 174.615 210.482 174.634 203.324V143.64C174.615 137.079 169.761 131.694 163.465 130.822Z" fill="black"/>
</g>
<path d="M133.419 165.343C133.419 160.431 129.456 156.459 124.564 156.459C119.681 156.459 115.718 160.431 115.718 165.343C115.718 168.955 117.88 172.055 120.97 173.44L114.656 190.506H134.481L128.167 173.44C131.257 172.055 133.419 168.955 133.419 165.343Z" fill="black"/>
</svg>
