<svg width="100" height="95" viewBox="0 0 100 95" fill="none" xmlns="http://www.w3.org/2000/svg">
<mask id="mask0_6_27" style="mask-type:luminance" maskUnits="userSpaceOnUse" x="5" y="29" width="29" height="34">
<path d="M5.8667 29.151H33.3334V62.951H5.8667V29.151Z" fill="white"/>
</mask>
<g mask="url(#mask0_6_27)">
<path d="M32.924 34.0208C32.924 34.0208 22.8407 33.2302 19.5521 29.151C16.2625 33.2302 6.1792 34.0208 6.1792 34.0208C6.1792 34.0208 5.55108 44.4219 6.38233 47.7177C9.36045 59.6177 19.5521 62.9135 19.5521 62.9135C19.5521 62.9135 29.75 59.6115 32.7219 47.7177C33.5521 44.4219 32.924 34.0208 32.924 34.0208Z" fill="black"/>
</g>
<path d="M31.4115 47.3938C28.9667 57.1792 21.4427 60.725 19.5584 61.475C17.6677 60.725 10.15 57.1792 7.70522 47.3938C7.14481 45.1448 7.31356 38.6677 7.48231 35.25C10.0698 34.926 16.2021 33.8927 19.5584 31.0688C22.9156 33.8927 29.0542 34.926 31.6344 35.25C31.7969 38.6677 31.9719 45.1448 31.4115 47.3938Z" fill="#CA2323"/>
<path d="M31.4115 47.3938C28.9667 57.1792 21.4427 60.725 19.5583 61.475V31.0688C22.9156 33.8927 29.0542 34.926 31.6344 35.25C31.7969 38.6677 31.9719 45.1448 31.4115 47.3938Z" fill="#9F1717"/>
<mask id="mask1_6_27" style="mask-type:luminance" maskUnits="userSpaceOnUse" x="14" y="37" width="12" height="16">
<path d="M14.0521 37.1333H25.0521V52.9271H14.0521V37.1333Z" fill="white"/>
</mask>
<g mask="url(#mask1_6_27)">
<path d="M24.0802 51.4896C24.0802 51.6125 24.0313 51.7219 23.949 51.8052C23.8657 51.8875 23.7563 51.9375 23.6334 51.9375H15.4709C15.3469 51.9365 15.2386 51.8875 15.1552 51.8052C15.074 51.7219 15.025 51.6125 15.024 51.4896V44.9323C15.025 44.8094 15.073 44.7 15.1552 44.6167C15.2386 44.5344 15.348 44.4844 15.4709 44.4844H23.6334C23.7563 44.4844 23.8657 44.5344 23.949 44.6167C24.0313 44.7 24.0802 44.8094 24.0802 44.9323V51.4896ZM17.1094 38.9802C17.6427 38.4469 18.3719 38.1187 19.1834 38.1177H19.9219C20.7334 38.1187 21.4625 38.4469 21.9948 38.9802C22.5261 39.5146 22.8542 40.2469 22.8542 41.0615V43.5083H16.2511V41.0615C16.2511 40.2469 16.5782 39.5146 17.1094 38.9802ZM23.8261 43.524V41.0615C23.8261 38.8969 22.0782 37.1427 19.9219 37.1427H19.1834C17.0271 37.1427 15.2792 38.8969 15.2792 41.0615V43.524C14.5865 43.6187 14.0542 44.2115 14.0521 44.9323V51.4896C14.0532 52.275 14.6865 52.9115 15.4709 52.9125H23.6334C24.4167 52.9104 25.0511 52.276 25.0532 51.4896V44.9323C25.0511 44.2115 24.5177 43.6198 23.8261 43.524Z" fill="black"/>
</g>
<path d="M20.525 47.3167C20.525 46.7771 20.0896 46.3406 19.5521 46.3406C19.0156 46.3406 18.5802 46.7771 18.5802 47.3167C18.5802 47.7136 18.8177 48.0542 19.1573 48.2063L18.4636 50.0813H20.6417L19.9479 48.2063C20.2875 48.0542 20.525 47.7136 20.525 47.3167Z" fill="black"/>
<mask id="mask2_6_27" style="mask-type:luminance" maskUnits="userSpaceOnUse" x="35" y="51" width="42" height="5">
<path d="M35.249 51.0115H76.1438V55.0979H35.249V51.0115Z" fill="white"/>
</mask>
<g mask="url(#mask2_6_27)">
<path d="M35.249 51.0115H76.1385V55.0979H35.249V51.0115Z" fill="black"/>
</g>
<mask id="mask3_6_27" style="mask-type:luminance" maskUnits="userSpaceOnUse" x="76" y="51" width="14" height="5">
<path d="M76.9437 51.0115H89.1708V55.0979H76.9437V51.0115Z" fill="white"/>
</mask>
<g mask="url(#mask3_6_27)">
<path d="M76.9437 51.0115H89.1687V55.0979H76.9437V51.0115Z" fill="#CA2323"/>
</g>
<mask id="mask4_6_27" style="mask-type:luminance" maskUnits="userSpaceOnUse" x="90" y="51" width="4" height="5">
<path d="M90 51.0115H93.0875V55.0979H90V51.0115Z" fill="white"/>
</mask>
<g mask="url(#mask4_6_27)">
<path d="M90 51.0115H93.0875V55.1011H90V51.0115Z" fill="black"/>
</g>
<path d="M41.0649 45.567C41.1534 45.567 41.2274 45.5982 41.2857 45.6586L41.9066 46.3253C41.6003 46.7149 41.2201 47.0107 40.7649 47.2128C40.3087 47.4159 39.767 47.517 39.1399 47.517C38.5732 47.517 38.0618 47.4211 37.6066 47.2295C37.1534 47.0357 36.7691 46.7659 36.4524 46.4211C36.1357 46.0743 35.8909 45.6649 35.7191 45.192C35.5493 44.717 35.4649 44.1993 35.4649 43.6378C35.4649 43.2607 35.5045 42.9024 35.5857 42.5628C35.6691 42.2211 35.7878 41.9076 35.9441 41.6211C36.1024 41.3357 36.2909 41.0774 36.5107 40.8461C36.7326 40.6159 36.9826 40.4201 37.2607 40.2586C37.5409 40.0982 37.8451 39.9743 38.1732 39.8878C38.5034 39.8024 38.8566 39.7586 39.2316 39.7586C39.5087 39.7586 39.7732 39.7836 40.0232 39.8336C40.2732 39.8816 40.5045 39.9493 40.7191 40.0378C40.9357 40.1243 41.1357 40.2295 41.3191 40.3545C41.5024 40.4774 41.667 40.6118 41.8149 40.7586L41.2857 41.4795C41.2545 41.5274 41.2149 41.5691 41.1649 41.6045C41.117 41.6378 41.0503 41.6545 40.9649 41.6545C40.8816 41.6545 40.7962 41.6253 40.7107 41.567C40.6274 41.5066 40.5232 41.4399 40.3982 41.367C40.2753 41.292 40.1201 41.2253 39.9316 41.167C39.7451 41.1086 39.5087 41.0795 39.2232 41.0795C38.9066 41.0795 38.6149 41.1368 38.3482 41.2503C38.0837 41.3649 37.8566 41.5316 37.6649 41.7503C37.4753 41.967 37.3284 42.2357 37.2232 42.5545C37.1201 42.8711 37.0691 43.2326 37.0691 43.6378C37.0691 44.0441 37.1253 44.4066 37.2399 44.7253C37.3534 45.0451 37.5087 45.3149 37.7066 45.5336C37.9034 45.7534 38.1326 45.9201 38.3941 46.0336C38.6576 46.1482 38.9399 46.2045 39.2399 46.2045C39.417 46.2045 39.5784 46.1961 39.7232 46.1795C39.867 46.1607 40.0003 46.1295 40.1232 46.0878C40.2482 46.0461 40.3659 45.9941 40.4774 45.9295C40.5878 45.8628 40.6993 45.7784 40.8107 45.6753C40.8493 45.6451 40.8899 45.6201 40.9316 45.6003C40.9732 45.5784 41.017 45.567 41.0649 45.567Z" fill="black"/>
<path d="M47.5918 42.042L44.6835 48.8836C44.6387 48.9805 44.5845 49.0524 44.521 49.1003C44.4564 49.1503 44.3543 49.1753 44.2126 49.1753H43.1418L44.1626 47.0003L41.996 42.042H43.2626C43.3762 42.042 43.4637 42.069 43.5251 42.1211C43.5887 42.1711 43.6356 42.2315 43.6668 42.3003L44.6918 44.8795C44.7272 44.9826 44.7606 45.0857 44.7918 45.1878C44.822 45.2909 44.8512 45.392 44.8793 45.492C44.9397 45.2868 45.0106 45.0815 45.0918 44.8753L46.046 42.3003C46.0731 42.2253 46.1231 42.1649 46.196 42.117C46.271 42.067 46.3512 42.042 46.4376 42.042H47.5918Z" fill="black"/>
<path d="M49.6026 46.0128C49.738 46.1691 49.886 46.2784 50.0443 46.342C50.2026 46.4034 50.3662 46.4336 50.536 46.4336C50.713 46.4336 50.8745 46.4024 51.0193 46.3378C51.1662 46.2743 51.2912 46.1711 51.3943 46.0295C51.4995 45.8878 51.5797 45.7045 51.636 45.4795C51.6912 45.2524 51.7193 44.9774 51.7193 44.6545C51.7193 44.3691 51.6953 44.1253 51.6485 43.9253C51.6037 43.7253 51.537 43.5618 51.4485 43.4336C51.3589 43.3034 51.2505 43.2086 51.1235 43.1503C50.9953 43.0899 50.8453 43.0586 50.6735 43.0586C50.4453 43.0586 50.2485 43.1086 50.0818 43.2086C49.9172 43.3086 49.7578 43.4545 49.6026 43.6461V46.0128ZM49.6026 42.6628C49.813 42.4493 50.0485 42.2784 50.3068 42.1503C50.5651 42.0201 50.8547 41.9545 51.1776 41.9545C51.486 41.9545 51.7651 42.017 52.0151 42.142C52.2651 42.267 52.4776 42.4451 52.6526 42.6753C52.8297 42.9034 52.9662 43.1816 53.061 43.5086C53.1578 43.8336 53.2068 44.1993 53.2068 44.6045C53.2068 45.0409 53.1505 45.4378 53.0401 45.7961C52.9318 46.1524 52.7755 46.4576 52.5735 46.7128C52.3703 46.9659 52.1287 47.1628 51.8485 47.3045C51.5672 47.443 51.2547 47.5128 50.911 47.5128C50.7412 47.5128 50.5901 47.4961 50.4568 47.4628C50.3255 47.4295 50.2037 47.3836 50.0901 47.3253C49.9787 47.2649 49.8755 47.1941 49.7818 47.1128C49.6901 47.0295 49.6026 46.9378 49.5193 46.8378L49.461 47.1628C49.436 47.2628 49.3953 47.3336 49.3401 47.3753C49.2839 47.4149 49.2089 47.4336 49.1151 47.4336H48.1568V39.6336H49.6026V42.6628Z" fill="black"/>
<path d="M57.5506 44.1003C57.5506 43.9503 57.5298 43.8076 57.4881 43.6711C57.4485 43.5357 57.386 43.4159 57.3006 43.3128C57.2142 43.2076 57.1048 43.1243 56.9715 43.0628C56.8381 43.0024 56.6798 42.9711 56.4965 42.9711C56.1485 42.9711 55.8777 43.0701 55.684 43.267C55.4892 43.4618 55.361 43.7399 55.3006 44.1003H57.5506ZM55.2798 44.9586C55.3267 45.4649 55.4715 45.8336 55.7131 46.067C55.9548 46.3003 56.2715 46.417 56.6631 46.417C56.86 46.417 57.0308 46.3951 57.1756 46.3503C57.3225 46.3034 57.4506 46.2503 57.559 46.192C57.6694 46.1336 57.7694 46.0816 57.859 46.0336C57.9475 45.9868 58.035 45.9628 58.1215 45.9628C58.2319 45.9628 58.3194 46.0045 58.384 46.0878L58.8006 46.6128C58.6475 46.7909 58.4777 46.9378 58.2923 47.0545C58.109 47.1711 57.9173 47.2649 57.7173 47.3336C57.5194 47.4003 57.3194 47.4461 57.1173 47.4711C56.9142 47.4982 56.7183 47.5128 56.5298 47.5128C56.1548 47.5128 55.8027 47.4513 55.4756 47.3295C55.1506 47.2045 54.8673 47.0211 54.6256 46.7795C54.384 46.5357 54.1923 46.2336 54.0506 45.8753C53.911 45.517 53.8423 45.1003 53.8423 44.6253C53.8423 44.2586 53.9017 43.9128 54.0215 43.5878C54.1433 43.2628 54.3173 42.9816 54.5423 42.742C54.7694 42.5003 55.0444 42.3086 55.3673 42.167C55.6923 42.0253 56.059 41.9545 56.4673 41.9545C56.8142 41.9545 57.1319 42.0107 57.4215 42.1211C57.7131 42.2326 57.9642 42.392 58.1756 42.6003C58.386 42.8086 58.5506 43.0659 58.6673 43.3711C58.784 43.6774 58.8423 44.0253 58.8423 44.417C58.8423 44.5253 58.836 44.6149 58.8256 44.6836C58.8173 44.7534 58.8006 44.8086 58.7756 44.8503C58.7506 44.892 58.7173 44.9211 58.6756 44.9378C58.634 44.9524 58.5798 44.9586 58.5131 44.9586H55.2798Z" fill="black"/>
<path d="M61.0909 42.9295C61.2627 42.6242 61.4596 42.3826 61.6825 42.2045C61.9075 42.0242 62.1679 41.9336 62.4659 41.9336C62.7096 41.9336 62.9096 41.992 63.0659 42.1086L62.97 43.1753C62.9534 43.2451 62.9252 43.294 62.8867 43.3211C62.8502 43.3461 62.8013 43.3586 62.7409 43.3586C62.6846 43.3586 62.6044 43.3524 62.4992 43.3378C62.3929 43.3211 62.2961 43.3128 62.2075 43.3128C62.0742 43.3128 61.9554 43.3326 61.8534 43.3711C61.7502 43.4076 61.6586 43.4617 61.5784 43.5336C61.4971 43.6034 61.4252 43.6878 61.3617 43.7878C61.2971 43.8878 61.2377 44.0034 61.1825 44.1336V47.4336H59.7367V42.042H60.5909C60.7377 42.042 60.8388 42.069 60.895 42.1211C60.9502 42.1711 60.9888 42.2617 61.0117 42.392L61.0909 42.9295Z" fill="black"/>
<path d="M67.9929 41.2961C67.9429 41.3774 67.8929 41.4368 67.8429 41.4753C67.7929 41.5118 67.7273 41.5295 67.6471 41.5295C67.569 41.5295 67.4856 41.5034 67.3971 41.4503C67.3075 41.3951 67.2034 41.3357 67.0846 41.2711C66.9679 41.2076 66.8315 41.1493 66.6763 41.0961C66.5231 41.0441 66.344 41.017 66.1388 41.017C65.7773 41.017 65.5054 41.0982 65.3221 41.2586C65.1409 41.4201 65.0513 41.6316 65.0513 41.892C65.0513 42.0618 65.1013 42.2024 65.2013 42.3128C65.3013 42.4211 65.4315 42.5159 65.5929 42.5961C65.7534 42.6774 65.9367 42.7493 66.1429 42.8128C66.3513 42.8743 66.5617 42.942 66.7763 43.017C66.9929 43.092 67.2034 43.1816 67.4096 43.2836C67.6148 43.3836 67.7981 43.5107 67.9596 43.6628C68.1231 43.8159 68.2554 44.0034 68.3554 44.2253C68.4554 44.4451 68.5054 44.7149 68.5054 45.0336C68.5054 45.3784 68.444 45.7024 68.3221 46.0045C68.2023 46.3045 68.0284 46.567 67.8013 46.792C67.5763 47.017 67.2971 47.1951 66.9638 47.3253C66.6304 47.4524 66.2523 47.517 65.8304 47.517C65.5909 47.517 65.3523 47.492 65.1138 47.442C64.8742 47.3951 64.644 47.3284 64.4221 47.242C64.1992 47.1534 63.9898 47.0482 63.7929 46.9253C63.5981 46.8034 63.4284 46.667 63.2846 46.517L63.7429 45.7753C63.7815 45.7201 63.8315 45.6743 63.8929 45.6378C63.9565 45.6024 64.0231 45.5836 64.0929 45.5836C64.1867 45.5836 64.2867 45.6191 64.3929 45.6878C64.4981 45.7576 64.6179 45.8336 64.7513 45.917C64.8867 46.0003 65.045 46.0774 65.2263 46.1461C65.4065 46.2159 65.6221 46.2503 65.8721 46.2503C66.2388 46.2503 66.5221 46.167 66.7221 46.0003C66.9221 45.8336 67.0221 45.5836 67.0221 45.2503C67.0221 45.0586 66.9721 44.9045 66.8721 44.7878C66.7742 44.6691 66.645 44.5691 66.4846 44.4878C66.3231 44.4076 66.1398 44.3399 65.9346 44.2836C65.7284 44.2253 65.5179 44.1618 65.3013 44.092C65.0846 44.0232 64.8731 43.9399 64.6679 43.842C64.4617 43.742 64.2784 43.6128 64.1179 43.4545C63.9596 43.2941 63.8304 43.0951 63.7304 42.8586C63.6304 42.6201 63.5804 42.3243 63.5804 41.9711C63.5804 41.6909 63.6356 41.4191 63.7471 41.1545C63.8606 40.8878 64.0242 40.6524 64.2388 40.4461C64.4554 40.2409 64.7221 40.0753 65.0388 39.9503C65.3554 39.8232 65.7159 39.7586 66.1221 39.7586C66.5804 39.7586 67.0034 39.8295 67.3929 39.9711C67.7815 40.1128 68.1106 40.3086 68.3804 40.5586L67.9929 41.2961Z" fill="#CA2323"/>
<path d="M72.8651 44.1003C72.8651 43.9503 72.8442 43.8076 72.8026 43.6711C72.763 43.5357 72.7005 43.4159 72.6151 43.3128C72.5286 43.2076 72.4192 43.1243 72.2859 43.0628C72.1526 43.0024 71.9942 42.9711 71.8109 42.9711C71.463 42.9711 71.1922 43.0701 70.9984 43.267C70.8036 43.4618 70.6755 43.7399 70.6151 44.1003H72.8651ZM70.5942 44.9586C70.6411 45.4649 70.7859 45.8336 71.0276 46.067C71.2692 46.3003 71.5859 46.417 71.9776 46.417C72.1744 46.417 72.3453 46.3951 72.4901 46.3503C72.6369 46.3034 72.7651 46.2503 72.8734 46.192C72.9838 46.1336 73.0838 46.0816 73.1734 46.0336C73.2619 45.9868 73.3494 45.9628 73.4359 45.9628C73.5463 45.9628 73.6338 46.0045 73.6984 46.0878L74.1151 46.6128C73.9619 46.7909 73.7922 46.9378 73.6067 47.0545C73.4234 47.1711 73.2317 47.2649 73.0317 47.3336C72.8338 47.4003 72.6338 47.4461 72.4317 47.4711C72.2286 47.4982 72.0328 47.5128 71.8442 47.5128C71.4692 47.5128 71.1172 47.4513 70.7901 47.3295C70.4651 47.2045 70.1817 47.0211 69.9401 46.7795C69.6984 46.5357 69.5067 46.2336 69.3651 45.8753C69.2255 45.517 69.1567 45.1003 69.1567 44.6253C69.1567 44.2586 69.2161 43.9128 69.3359 43.5878C69.4578 43.2628 69.6317 42.9816 69.8567 42.742C70.0838 42.5003 70.3588 42.3086 70.6817 42.167C71.0067 42.0253 71.3734 41.9545 71.7817 41.9545C72.1286 41.9545 72.4463 42.0107 72.7359 42.1211C73.0276 42.2326 73.2786 42.392 73.4901 42.6003C73.7005 42.8086 73.8651 43.0659 73.9817 43.3711C74.0984 43.6774 74.1567 44.0253 74.1567 44.417C74.1567 44.5253 74.1505 44.6149 74.1401 44.6836C74.1317 44.7534 74.1151 44.8086 74.0901 44.8503C74.0651 44.892 74.0317 44.9211 73.9901 44.9378C73.9484 44.9524 73.8942 44.9586 73.8276 44.9586H70.5942Z" fill="#CA2323"/>
<path d="M76.3928 42.667C76.498 42.5649 76.6094 42.4701 76.7261 42.3836C76.8448 42.2951 76.9698 42.2201 77.1011 42.1586C77.2313 42.0951 77.3719 42.0451 77.5219 42.0086C77.674 41.9732 77.8396 41.9545 78.0178 41.9545C78.3094 41.9545 78.5688 42.0066 78.7969 42.1086C79.024 42.2086 79.2146 42.3503 79.3678 42.5336C79.523 42.7149 79.6396 42.9316 79.7178 43.1836C79.798 43.4336 79.8386 43.7086 79.8386 44.0086V47.4336H78.4011V44.0086C78.4011 43.7086 78.3303 43.4753 78.1886 43.3086C78.049 43.142 77.8438 43.0586 77.5719 43.0586C77.3688 43.0586 77.1782 43.1034 77.0011 43.192C76.823 43.2784 76.6553 43.4003 76.4969 43.5586V47.4336H75.0511V42.042H75.9428C76.123 42.042 76.2428 42.1253 76.3011 42.292L76.3928 42.667Z" fill="#CA2323"/>
<path d="M84.3364 43.1503C84.2968 43.2086 84.2572 43.2524 84.2155 43.2795C84.176 43.3045 84.1218 43.317 84.053 43.317C83.9833 43.317 83.9114 43.3003 83.8364 43.267C83.7635 43.2316 83.6822 43.1941 83.5905 43.1545C83.501 43.1128 83.3989 43.0753 83.2822 43.042C83.1655 43.0066 83.0301 42.9878 82.878 42.9878C82.6416 42.9878 82.4593 43.0368 82.3322 43.1336C82.2041 43.2284 82.1405 43.3534 82.1405 43.5086C82.1405 43.617 82.176 43.7086 82.2489 43.7836C82.3208 43.8566 82.4166 43.9201 82.5364 43.9753C82.6583 44.0284 82.7958 44.0784 82.9489 44.1253C83.101 44.1732 83.2583 44.2243 83.4197 44.2795C83.5833 44.3357 83.7416 44.4003 83.8947 44.4753C84.0499 44.5482 84.1874 44.6399 84.3072 44.7503C84.426 44.8586 84.5218 44.9909 84.5947 45.1461C84.6697 45.3024 84.7072 45.4899 84.7072 45.7086C84.7072 45.9701 84.6583 46.2118 84.5614 46.4336C84.4666 46.6534 84.326 46.8441 84.1405 47.0045C83.9572 47.1659 83.728 47.292 83.453 47.3836C83.178 47.4722 82.8593 47.517 82.4989 47.517C82.3155 47.517 82.1322 47.5003 81.9489 47.467C81.7676 47.4336 81.5958 47.3868 81.4322 47.3253C81.2676 47.2649 81.1135 47.1951 80.9697 47.117C80.828 47.0368 80.7041 46.9493 80.5989 46.8545L80.9364 46.3128C80.9749 46.2524 81.0218 46.2045 81.078 46.1711C81.1364 46.1357 81.2114 46.117 81.303 46.117C81.3885 46.117 81.4676 46.1399 81.5405 46.1836C81.6155 46.2253 81.6968 46.2711 81.7864 46.3211C81.878 46.3711 81.9843 46.4191 82.1072 46.4628C82.2322 46.5076 82.3874 46.5295 82.5739 46.5295C82.7124 46.5295 82.8322 46.5149 82.9322 46.4836C83.0343 46.4503 83.1166 46.4076 83.178 46.3545C83.2416 46.2993 83.2874 46.2378 83.3155 46.1711C83.3458 46.1024 83.3614 46.0316 83.3614 45.9586C83.3614 45.8399 83.3239 45.742 83.2489 45.667C83.1739 45.592 83.076 45.5274 82.9572 45.4711C82.8374 45.4159 82.6989 45.3659 82.5405 45.3211C82.3843 45.2743 82.2249 45.2232 82.0614 45.167C81.8999 45.1118 81.7416 45.0461 81.5864 44.9711C81.4301 44.8941 81.2926 44.7961 81.1739 44.6795C81.0541 44.5628 80.9572 44.4201 80.8822 44.2503C80.8072 44.0784 80.7697 43.8701 80.7697 43.6253C80.7697 43.4034 80.8124 43.192 80.8989 42.992C80.9843 42.7899 81.1155 42.6118 81.2905 42.4586C81.4655 42.3066 81.6822 42.1836 81.9405 42.092C82.201 42.0003 82.503 41.9545 82.8447 41.9545C83.228 41.9545 83.576 42.0191 83.8905 42.1461C84.2041 42.2711 84.4624 42.4357 84.6655 42.6378L84.3364 43.1503Z" fill="#CA2323"/>
<path d="M89.0319 44.1003C89.0319 43.9503 89.011 43.8076 88.9694 43.6711C88.9298 43.5357 88.8673 43.4159 88.7819 43.3128C88.6954 43.2076 88.586 43.1243 88.4527 43.0628C88.3194 43.0024 88.161 42.9711 87.9777 42.9711C87.6298 42.9711 87.359 43.0701 87.1652 43.267C86.9704 43.4618 86.8423 43.7399 86.7819 44.1003H89.0319ZM86.761 44.9586C86.8079 45.4649 86.9527 45.8336 87.1944 46.067C87.436 46.3003 87.7527 46.417 88.1444 46.417C88.3413 46.417 88.5121 46.3951 88.6569 46.3503C88.8038 46.3034 88.9319 46.2503 89.0402 46.192C89.1506 46.1336 89.2506 46.0816 89.3402 46.0336C89.4288 45.9868 89.5163 45.9628 89.6027 45.9628C89.7131 45.9628 89.8006 46.0045 89.8652 46.0878L90.2819 46.6128C90.1288 46.7909 89.959 46.9378 89.7735 47.0545C89.5902 47.1711 89.3985 47.2649 89.1985 47.3336C89.0006 47.4003 88.8006 47.4461 88.5985 47.4711C88.3954 47.4982 88.1996 47.5128 88.011 47.5128C87.636 47.5128 87.284 47.4513 86.9569 47.3295C86.6319 47.2045 86.3485 47.0211 86.1069 46.7795C85.8652 46.5357 85.6735 46.2336 85.5319 45.8753C85.3923 45.517 85.3235 45.1003 85.3235 44.6253C85.3235 44.2586 85.3829 43.9128 85.5027 43.5878C85.6246 43.2628 85.7985 42.9816 86.0235 42.742C86.2506 42.5003 86.5256 42.3086 86.8485 42.167C87.1735 42.0253 87.5402 41.9545 87.9485 41.9545C88.2954 41.9545 88.6131 42.0107 88.9027 42.1211C89.1944 42.2326 89.4454 42.392 89.6569 42.6003C89.8673 42.8086 90.0319 43.0659 90.1485 43.3711C90.2652 43.6774 90.3235 44.0253 90.3235 44.417C90.3235 44.5253 90.3173 44.6149 90.3069 44.6836C90.2985 44.7534 90.2819 44.8086 90.2569 44.8503C90.2319 44.892 90.1985 44.9211 90.1569 44.9378C90.1152 44.9524 90.061 44.9586 89.9944 44.9586H86.761Z" fill="#CA2323"/>
<path d="M92.7054 42.042V47.4336H91.2596V42.042H92.7054ZM92.8762 40.5086C92.8762 40.6315 92.8512 40.7451 92.8012 40.8503C92.7533 40.9534 92.6887 41.0451 92.6054 41.1253C92.5242 41.2065 92.4283 41.269 92.3179 41.3128C92.2096 41.3576 92.0929 41.3795 91.9679 41.3795C91.8481 41.3795 91.7346 41.3576 91.6262 41.3128C91.52 41.269 91.4273 41.2065 91.3471 41.1253C91.269 41.0451 91.2065 40.9534 91.1596 40.8503C91.1117 40.7451 91.0887 40.6315 91.0887 40.5086C91.0887 40.3867 91.1117 40.2732 91.1596 40.167C91.2065 40.0586 91.269 39.9649 91.3471 39.8836C91.4273 39.8034 91.52 39.7409 91.6262 39.6961C91.7346 39.6524 91.8481 39.6295 91.9679 39.6295C92.0929 39.6295 92.2096 39.6524 92.3179 39.6961C92.4283 39.7409 92.5242 39.8034 92.6054 39.8836C92.6887 39.9649 92.7533 40.0586 92.8012 40.167C92.8512 40.2732 92.8762 40.3867 92.8762 40.5086Z" fill="#CA2323"/>
</svg>
